<svg width="621" height="880" viewBox="0 0 621 880" fill="none" xmlns="http://www.w3.org/2000/svg">
<path d="M333.223 73.3318C333.223 32.8318 295.926 0 249.917 0C203.909 0 166.612 32.8318 166.612 73.3318C166.612 113.832 203.909 146.664 249.917 146.664C295.926 146.664 333.223 113.832 333.223 73.3318Z" fill="#F5F5F5"/>
<path d="M249.957 106.072C240.092 106.072 230.632 102.623 223.657 96.4827C216.682 90.3427 212.763 82.015 212.763 73.3316C212.763 64.6483 216.682 56.3206 223.657 50.1806C230.632 44.0405 240.092 40.5911 249.957 40.5911C259.821 40.5911 269.281 44.0405 276.257 50.1806C283.232 56.3206 287.15 64.6483 287.15 73.3316C287.15 82.015 283.232 90.3427 276.257 96.4827C269.281 102.623 259.821 106.072 249.957 106.072Z" fill="#61CE70"/>
<path d="M499.835 0H333.223V146.664H499.835V0Z" fill="#2F3490"/>
<path d="M166.612 146.664H0C0 107.766 17.5537 70.4616 48.7994 42.9568C80.0451 15.452 122.423 0 166.612 0V0V146.664Z" fill="#DFF5E2"/>
<path d="M499.915 0H666.526C666.526 38.8976 648.973 76.2021 617.727 103.707C586.481 131.212 544.103 146.664 499.915 146.664V0Z" fill="#F5F5F5"/>
<path d="M166.612 293.327C122.423 293.327 80.0451 277.875 48.7994 250.37C17.5537 222.866 0 185.561 0 146.664H166.612V293.327Z" fill="#F5F5F5"/>
<path d="M166.611 230.064C141.483 230.064 117.385 221.277 99.6169 205.637C81.849 189.996 71.8671 168.783 71.8671 146.664H166.611V230.064Z" fill="#61CE70"/>
<path d="M333.223 146.664H166.612V293.327H333.223V146.664Z" fill="#2F3490"/>
<path d="M285.571 188.611H214.263V251.381H285.571V188.611Z" fill="#DFF5E2"/>
<path d="M499.835 146.664H333.223V293.327H499.835V146.664Z" fill="#DFF5E2"/>
<path d="M499.915 146.663V293.327H333.223C333.223 274.061 337.535 254.983 345.913 237.185C354.291 219.386 366.571 203.215 382.051 189.595C397.531 175.975 415.907 165.173 436.131 157.807C456.354 150.441 478.028 146.654 499.915 146.663Z" fill="#F5F5F5"/>
<path d="M499.915 146.664C544.103 146.664 586.481 162.116 617.727 189.62C648.973 217.125 666.526 254.43 666.526 293.327H499.915V146.664Z" fill="#61CE70"/>
<path d="M333.223 293.327H166.612V439.991H333.223V293.327Z" fill="#61CE70"/>
<path d="M499.835 293.327H333.223V439.991H499.835V293.327Z" fill="#F9FBFC"/>
<path d="M166.612 366.659C166.612 326.159 129.314 293.327 83.3058 293.327C37.2973 293.327 0 326.159 0 366.659C0 407.159 37.2973 439.991 83.3058 439.991C129.314 439.991 166.612 407.159 166.612 366.659Z" fill="#2F3490"/>
<path d="M83.3056 399.382C73.4465 399.382 63.9912 395.934 57.0198 389.798C50.0484 383.661 46.1319 375.338 46.1319 366.659C46.1319 357.98 50.0484 349.657 57.0198 343.52C63.9912 337.384 73.4465 333.936 83.3056 333.936C93.1646 333.936 102.62 337.384 109.591 343.52C116.563 349.657 120.479 357.98 120.479 366.659C120.479 375.338 116.563 383.661 109.591 389.798C102.62 395.934 93.1646 399.382 83.3056 399.382Z" fill="#F5F5F5"/>
<path d="M666.466 293.327H499.854V439.991H666.466V293.327Z" fill="#F9FBFC"/>
<path d="M333.223 293.327H499.915V440.061C455.727 440.061 413.348 424.609 382.102 397.104C350.857 369.6 333.303 332.295 333.303 293.398L333.223 293.327Z" fill="#2F3490"/>
<path d="M499.915 293.327H666.526C666.537 312.593 662.235 331.672 653.867 349.475C645.499 367.277 633.228 383.453 617.755 397.08C602.283 410.706 583.912 421.516 563.693 428.89C543.473 436.265 521.801 440.061 499.915 440.061V293.327Z" fill="#F5F5F5"/>
<path d="M499.915 293.327H417.349C417.349 283.786 419.485 274.338 423.635 265.524C427.785 256.71 433.869 248.703 441.537 241.959C449.205 235.216 458.307 229.869 468.324 226.224C478.341 222.579 489.076 220.708 499.915 220.717V293.327Z" fill="#F9FBFC"/>
<path d="M499.915 220.717C521.797 220.717 542.783 228.369 558.255 241.989C573.728 255.61 582.421 274.083 582.421 293.345H499.915V220.717Z" fill="#F5F5F5"/>
<path d="M499.914 365.955C478.032 365.955 457.047 358.303 441.574 344.683C426.101 331.062 417.408 312.589 417.408 293.327H499.914V365.955Z" fill="#61CE70"/>
<path d="M499.915 365.955V293.327H582.401C582.403 302.864 580.272 312.308 576.128 321.119C571.984 329.931 565.908 337.937 558.248 344.682C550.589 351.426 541.494 356.776 531.486 360.426C521.477 364.076 510.749 365.955 499.915 365.955Z" fill="#2F3490"/>
<path d="M166.612 586.672C122.434 586.672 80.0646 571.228 48.8206 543.734C17.5766 516.241 0.0159065 478.95 0 440.061H166.612V586.672Z" fill="#DFF5E2"/>
<path d="M333.223 440.009H166.612V586.673H333.223V440.009Z" fill="#2F3490"/>
<path d="M333.223 586.673H166.612L333.223 440.009V586.673Z" fill="#2F3490"/>
<path d="M333.223 440.061C355.105 440.052 376.774 443.837 396.993 451.2C417.213 458.563 435.587 469.36 451.066 482.975C466.545 496.589 478.826 512.754 487.207 530.547C495.589 548.339 499.907 567.411 499.915 586.672H333.223V440.061Z" fill="#F5F5F5"/>
<path d="M666.466 440.061V586.725H499.915C499.915 547.837 517.46 510.54 548.693 483.037C579.926 455.534 622.289 440.075 666.466 440.061Z" fill="#2F3490"/>
<path d="M666.466 440.061V586.725H499.915C499.915 547.837 517.46 510.54 548.693 483.037C579.926 455.534 622.289 440.075 666.466 440.061Z" fill="#2F3490"/>
<path d="M666.467 494.629V586.743H561.904C561.904 562.325 572.918 538.906 592.525 521.634C612.132 504.361 638.728 494.648 666.467 494.629Z" fill="#F5F5F5"/>
<path d="M166.612 733.336C122.423 733.336 80.0451 748.788 48.7994 776.293C17.5537 803.798 0 841.102 0 880H166.612V733.336Z" fill="#F5F5F5"/>
<path d="M166.612 733.336V880H333.223C333.223 841.102 315.669 803.798 284.424 776.293C253.178 748.788 210.8 733.336 166.612 733.336Z" fill="#61CE70"/>
<path d="M166.612 795.244C141.076 795.244 116.586 804.174 98.5292 820.068C80.4726 835.963 70.3284 857.521 70.3284 880H166.612V795.244Z" fill="#DFF5E2"/>
<path d="M166.612 795.244V880H262.895C262.895 868.87 260.405 857.848 255.566 847.565C250.727 837.282 243.635 827.939 234.694 820.068C225.754 812.198 215.139 805.955 203.458 801.696C191.776 797.436 179.256 795.244 166.612 795.244Z" fill="#F9FBFC"/>
<path d="M333.223 733.336C333.223 752.602 337.535 771.68 345.913 789.478C354.291 807.277 366.571 823.448 382.051 837.068C397.531 850.688 415.907 861.49 436.131 868.856C456.354 876.222 478.028 880.009 499.915 880C499.915 860.734 495.602 841.657 487.224 823.858C478.846 806.059 466.567 789.888 451.087 776.268C435.607 762.648 417.231 751.847 397.007 744.48C376.784 737.114 355.11 733.327 333.223 733.336Z" fill="#2F3490"/>
<path d="M666.466 733.336C622.289 733.35 579.926 748.808 548.693 776.312C517.46 803.815 499.915 841.111 499.915 880H666.526L666.466 733.336Z" fill="#F5F5F5"/>
<path d="M166.612 586.672C166.617 625.569 184.172 662.87 215.417 690.374C246.661 717.878 289.037 733.331 333.223 733.336C333.223 694.438 315.669 657.134 284.424 629.629C253.178 602.124 210.8 586.672 166.612 586.672Z" fill="#F5F5F5"/>
<path d="M499.915 586.672C478.033 586.67 456.366 590.462 436.149 597.831C415.933 605.201 397.563 616.004 382.09 629.623C366.616 643.242 354.342 659.411 345.968 677.206C337.594 695.001 333.283 714.074 333.283 733.336C377.473 733.336 419.854 717.885 451.103 690.38C482.351 662.876 499.91 625.572 499.915 586.672Z" fill="#61CE70"/>
<path d="M666.466 586.672H499.854V733.336H666.466V586.672Z" fill="#F9FBFC"/>
<path d="M624.813 586.672C619.343 586.67 613.925 587.617 608.871 589.459C603.816 591.301 599.223 594.001 595.355 597.406C591.486 600.812 588.418 604.855 586.326 609.304C584.234 613.754 583.158 618.523 583.161 623.338C583.147 628.161 584.215 632.938 586.303 637.397C588.39 641.855 591.456 645.908 595.325 649.322C599.194 652.736 603.79 655.445 608.851 657.293C613.911 659.141 619.335 660.092 624.813 660.092C635.859 660.088 646.45 656.223 654.261 649.348C662.071 642.473 666.461 633.149 666.466 623.426C666.48 618.604 665.412 613.826 663.325 609.368C661.237 604.909 658.171 600.857 654.302 597.443C650.433 594.029 645.837 591.32 640.777 589.472C635.716 587.624 630.292 586.672 624.813 586.672Z" fill="#61CE70"/>
<path d="M624.813 614.66C623.518 614.658 622.235 614.881 621.037 615.316C619.84 615.751 618.752 616.39 617.836 617.197C616.92 618.003 616.194 618.961 615.7 620.015C615.205 621.068 614.952 622.198 614.955 623.338C614.955 625.64 615.993 627.847 617.842 629.474C619.691 631.102 622.198 632.016 624.813 632.016C627.428 632.016 629.935 631.102 631.784 629.474C633.633 627.847 634.671 625.64 634.671 623.338C634.671 621.037 633.633 618.829 631.784 617.202C629.935 615.574 627.428 614.66 624.813 614.66Z" fill="#F9FBFC"/>
<path d="M541.507 586.672C530.469 586.682 519.887 590.549 512.087 597.425C504.288 604.301 499.909 613.622 499.914 623.338C499.901 628.156 500.967 632.929 503.051 637.385C505.134 641.84 508.195 645.89 512.058 649.303C515.921 652.717 520.51 655.426 525.563 657.278C530.616 659.129 536.034 660.085 541.507 660.092C552.553 660.088 563.144 656.223 570.955 649.348C578.765 642.473 583.155 633.149 583.16 623.426C583.173 618.604 582.106 613.826 580.018 609.368C577.931 604.909 574.865 600.857 570.996 597.443C567.127 594.029 562.53 591.32 557.47 589.472C552.41 587.624 546.986 586.672 541.507 586.672Z" fill="#DFF5E2"/>
<path d="M541.508 614.66C540.212 614.658 538.929 614.881 537.732 615.316C536.535 615.751 535.447 616.39 534.531 617.197C533.615 618.003 532.889 618.961 532.395 620.015C531.9 621.068 531.647 622.198 531.649 623.338C531.649 625.64 532.688 627.847 534.537 629.474C536.386 631.102 538.893 632.016 541.508 632.016C542.802 632.016 544.084 631.792 545.28 631.356C546.476 630.919 547.563 630.28 548.479 629.474C549.394 628.669 550.12 627.712 550.616 626.659C551.111 625.606 551.366 624.478 551.366 623.338C551.366 622.199 551.111 621.07 550.616 620.017C550.12 618.964 549.394 618.008 548.479 617.202C547.563 616.396 546.476 615.757 545.28 615.321C544.084 614.885 542.802 614.66 541.508 614.66Z" fill="#2F3490"/>
<path d="M624.813 660.092C619.343 660.09 613.925 661.037 608.87 662.878C603.816 664.72 599.223 667.421 595.354 670.826C591.486 674.231 588.418 678.274 586.326 682.724C584.233 687.173 583.158 691.942 583.161 696.758C583.161 706.482 587.549 715.809 595.36 722.685C603.172 729.561 613.766 733.424 624.813 733.424C635.859 733.419 646.45 729.555 654.261 722.68C662.071 715.805 666.461 706.481 666.466 696.758C666.466 687.034 662.078 677.708 654.266 670.831C646.455 663.955 635.86 660.092 624.813 660.092Z" fill="#2F3490"/>
<path d="M624.813 687.992C622.198 687.992 619.691 688.907 617.842 690.534C615.993 692.162 614.955 694.369 614.955 696.67C614.955 698.972 615.993 701.179 617.842 702.807C619.691 704.434 622.198 705.348 624.813 705.348C627.428 705.348 629.935 704.434 631.784 702.807C633.633 701.179 634.671 698.972 634.671 696.67C634.671 694.369 633.633 692.162 631.784 690.534C629.935 688.907 627.428 687.992 624.813 687.992Z" fill="#61CE70"/>
<path d="M583.16 696.67C583.16 676.42 564.511 660.004 541.507 660.004C518.503 660.004 499.854 676.42 499.854 696.67C499.854 716.92 518.503 733.336 541.507 733.336C564.511 733.336 583.16 716.92 583.16 696.67Z" fill="#F5F5F5"/>
<path d="M541.508 687.992C538.893 687.992 536.386 688.907 534.537 690.534C532.688 692.162 531.649 694.369 531.649 696.67C531.649 698.972 532.688 701.179 534.537 702.807C536.386 704.434 538.893 705.348 541.508 705.348C542.802 705.348 544.084 705.124 545.28 704.688C546.476 704.252 547.563 703.613 548.479 702.807C549.394 702.001 550.12 701.044 550.616 699.991C551.111 698.938 551.366 697.81 551.366 696.67C551.366 695.531 551.111 694.402 550.616 693.35C550.12 692.297 549.394 691.34 548.479 690.534C547.563 689.728 546.476 689.089 545.28 688.653C544.084 688.217 542.802 687.992 541.508 687.992Z" fill="#DFF5E2"/>
<path d="M187.388 346.135C189.509 346.135 191.544 345.393 193.044 344.073C194.544 342.752 195.386 340.961 195.386 339.094C195.38 337.214 194.533 335.411 193.027 334.077C191.502 332.754 189.449 332.009 187.308 332C185.168 332 183.116 332.749 181.602 334.081C180.089 335.413 179.239 337.219 179.239 339.103C179.239 340.987 180.089 342.793 181.602 344.125C183.116 345.457 185.168 346.205 187.308 346.205" fill="#F9FBFC"/>
<path d="M270.594 346.135C272.733 346.135 274.786 345.386 276.299 344.054C277.812 342.722 278.662 340.916 278.662 339.032C278.662 337.148 277.812 335.342 276.299 334.01C274.786 332.678 272.733 331.929 270.594 331.929C268.454 331.929 266.401 332.678 264.888 334.01C263.375 335.342 262.525 337.148 262.525 339.032C262.525 340.916 263.375 342.722 264.888 344.054C266.401 345.386 268.454 346.135 270.594 346.135Z" fill="#F9FBFC"/>
<path d="M228.981 346.135C231.121 346.135 233.173 345.386 234.686 344.054C236.199 342.722 237.049 340.916 237.049 339.032C237.049 337.148 236.199 335.342 234.686 334.01C233.173 332.678 231.121 331.929 228.981 331.929C226.841 331.929 224.789 332.678 223.275 334.01C221.762 335.342 220.912 337.148 220.912 339.032C220.912 340.916 221.762 342.722 223.275 344.054C224.789 345.386 226.841 346.135 228.981 346.135Z" fill="#F9FBFC"/>
<path d="M312.247 346.135C314.094 346.125 315.881 345.553 317.304 344.516C318.727 343.478 319.697 342.039 320.051 340.443C320.405 338.847 320.121 337.192 319.246 335.759C318.371 334.327 316.959 333.205 315.251 332.585C313.544 331.965 311.644 331.884 309.877 332.357C308.109 332.829 306.581 333.826 305.554 335.178C304.526 336.529 304.062 338.152 304.239 339.771C304.417 341.39 305.225 342.904 306.528 344.058C308.048 345.387 310.104 346.134 312.247 346.135Z" fill="#F9FBFC"/>
<path d="M187.388 316.95C189.529 316.942 191.582 316.196 193.107 314.873C193.866 314.218 194.469 313.435 194.88 312.573C195.292 311.71 195.504 310.783 195.504 309.847C195.504 308.912 195.292 307.985 194.88 307.122C194.469 306.259 193.866 305.477 193.107 304.822C191.579 303.505 189.527 302.766 187.388 302.762C185.248 302.762 183.196 303.511 181.683 304.843C180.17 306.175 179.319 307.981 179.319 309.865C179.319 311.749 180.17 313.555 181.683 314.887C183.196 316.219 185.248 316.968 187.388 316.968" fill="#F9FBFC"/>
<path d="M270.594 316.95C272.733 316.95 274.786 316.201 276.299 314.869C277.812 313.538 278.662 311.731 278.662 309.847C278.662 307.963 277.812 306.157 276.299 304.825C274.786 303.493 272.733 302.745 270.594 302.745C268.454 302.745 266.401 303.493 264.888 304.825C263.375 306.157 262.525 307.963 262.525 309.847C262.525 311.731 263.375 313.538 264.888 314.869C266.401 316.201 268.454 316.95 270.594 316.95Z" fill="#F9FBFC"/>
<path d="M228.981 316.95C231.121 316.95 233.173 316.201 234.686 314.869C236.199 313.538 237.049 311.731 237.049 309.847C237.049 307.963 236.199 306.157 234.686 304.825C233.173 303.493 231.121 302.745 228.981 302.745C226.841 302.745 224.789 303.493 223.275 304.825C221.762 306.157 220.912 307.963 220.912 309.847C220.912 311.731 221.762 313.538 223.275 314.869C224.789 316.201 226.841 316.95 228.981 316.95Z" fill="#F9FBFC"/>
<path d="M312.247 316.95C314.094 316.941 315.881 316.369 317.304 315.331C318.727 314.293 319.697 312.854 320.051 311.258C320.405 309.662 320.121 308.007 319.246 306.575C318.371 305.142 316.959 304.021 315.251 303.4C313.544 302.78 311.644 302.699 309.877 303.172C308.109 303.644 306.581 304.641 305.554 305.993C304.526 307.344 304.062 308.967 304.239 310.586C304.417 312.205 305.225 313.72 306.528 314.873C308.048 316.203 310.104 316.949 312.247 316.95Z" fill="#F9FBFC"/>
<path d="M187.388 375.319C189.509 375.319 191.544 374.578 193.044 373.257C194.544 371.937 195.386 370.146 195.386 368.278C195.38 366.398 194.533 364.596 193.027 363.262C191.502 361.938 189.449 361.193 187.308 361.185C185.168 361.185 183.116 361.933 181.602 363.265C180.089 364.597 179.239 366.403 179.239 368.287C179.239 370.171 180.089 371.977 181.602 373.309C183.116 374.641 185.168 375.39 187.308 375.39" fill="#F9FBFC"/>
<path d="M270.594 375.319C272.733 375.319 274.786 374.571 276.299 373.239C277.812 371.907 278.662 370.101 278.662 368.217C278.662 366.333 277.812 364.527 276.299 363.195C274.786 361.863 272.733 361.114 270.594 361.114C268.454 361.114 266.401 361.863 264.888 363.195C263.375 364.527 262.525 366.333 262.525 368.217C262.525 370.101 263.375 371.907 264.888 373.239C266.401 374.571 268.454 375.319 270.594 375.319Z" fill="#F9FBFC"/>
<path d="M228.981 375.319C231.121 375.319 233.173 374.571 234.686 373.239C236.199 371.907 237.049 370.101 237.049 368.217C237.049 366.333 236.199 364.527 234.686 363.195C233.173 361.863 231.121 361.114 228.981 361.114C226.841 361.114 224.789 361.863 223.275 363.195C221.762 364.527 220.912 366.333 220.912 368.217C220.912 370.101 221.762 371.907 223.275 373.239C224.789 374.571 226.841 375.319 228.981 375.319Z" fill="#F9FBFC"/>
<path d="M312.247 375.32C314.094 375.31 315.881 374.738 317.304 373.701C318.727 372.663 319.697 371.224 320.051 369.628C320.405 368.032 320.121 366.377 319.246 364.944C318.371 363.512 316.959 362.39 315.251 361.77C313.544 361.15 311.644 361.069 309.877 361.542C308.109 362.014 306.581 363.011 305.554 364.362C304.526 365.714 304.062 367.337 304.239 368.956C304.417 370.575 305.225 372.089 306.528 373.243C308.048 374.572 310.104 375.319 312.247 375.32Z" fill="#F9FBFC"/>
<path d="M187.388 404.505C189.509 404.505 191.544 403.763 193.044 402.442C194.544 401.122 195.386 399.331 195.386 397.464C195.38 395.583 194.533 393.781 193.027 392.447C191.502 391.124 189.449 390.378 187.308 390.37C185.168 390.37 183.116 391.118 181.602 392.45C180.089 393.782 179.239 395.589 179.239 397.472C179.239 399.356 180.089 401.163 181.602 402.495C183.116 403.827 185.168 404.575 187.308 404.575" fill="#F9FBFC"/>
<path d="M270.594 404.505C272.733 404.505 274.786 403.756 276.299 402.424C277.812 401.092 278.662 399.286 278.662 397.402C278.662 395.518 277.812 393.712 276.299 392.38C274.786 391.048 272.733 390.299 270.594 390.299C268.454 390.299 266.401 391.048 264.888 392.38C263.375 393.712 262.525 395.518 262.525 397.402C262.525 399.286 263.375 401.092 264.888 402.424C266.401 403.756 268.454 404.505 270.594 404.505Z" fill="#F9FBFC"/>
<path d="M228.981 404.505C231.121 404.505 233.173 403.756 234.686 402.424C236.199 401.092 237.049 399.286 237.049 397.402C237.049 395.518 236.199 393.712 234.686 392.38C233.173 391.048 231.121 390.299 228.981 390.299C226.841 390.299 224.789 391.048 223.275 392.38C221.762 393.712 220.912 395.518 220.912 397.402C220.912 399.286 221.762 401.092 223.275 402.424C224.789 403.756 226.841 404.505 228.981 404.505Z" fill="#F9FBFC"/>
<path d="M312.247 404.504C314.094 404.495 315.881 403.923 317.304 402.885C318.727 401.848 319.697 400.409 320.051 398.812C320.405 397.216 320.121 395.561 319.246 394.129C318.371 392.697 316.959 391.575 315.251 390.955C313.544 390.335 311.644 390.254 309.877 390.726C308.109 391.199 306.581 392.196 305.554 393.547C304.526 394.899 304.062 396.522 304.239 398.14C304.417 399.759 305.225 401.274 306.528 402.427C308.048 403.757 310.104 404.504 312.247 404.504Z" fill="#F9FBFC"/>
<path d="M187.388 433.689C189.51 433.689 191.544 432.948 193.044 431.627C194.544 430.307 195.387 428.516 195.387 426.648C195.381 424.768 194.533 422.966 193.027 421.632C191.502 420.309 189.45 419.563 187.308 419.555C185.187 419.555 183.153 420.296 181.653 421.617C180.152 422.937 179.31 424.728 179.31 426.596C179.319 428.481 180.166 430.288 181.669 431.63C183.185 432.955 185.232 433.702 187.368 433.707" fill="#F9FBFC"/>
<path d="M270.594 433.69C272.733 433.69 274.786 432.942 276.299 431.61C277.812 430.278 278.662 428.471 278.662 426.587C278.662 424.703 277.812 422.897 276.299 421.565C274.786 420.233 272.733 419.485 270.594 419.485C268.454 419.485 266.401 420.233 264.888 421.565C263.375 422.897 262.525 424.703 262.525 426.587C262.525 428.471 263.375 430.278 264.888 431.61C266.401 432.942 268.454 433.69 270.594 433.69Z" fill="#F9FBFC"/>
<path d="M228.981 433.69C231.121 433.69 233.173 432.942 234.686 431.61C236.199 430.278 237.049 428.471 237.049 426.587C237.049 424.703 236.199 422.897 234.686 421.565C233.173 420.233 231.121 419.485 228.981 419.485C226.841 419.485 224.789 420.233 223.275 421.565C221.762 422.897 220.912 424.703 220.912 426.587C220.912 428.471 221.762 430.278 223.275 431.61C224.789 432.942 226.841 433.69 228.981 433.69Z" fill="#F9FBFC"/>
<path d="M312.247 433.689C314.383 433.684 316.43 432.938 317.946 431.612C319.449 430.27 320.296 428.463 320.305 426.578C320.305 424.694 319.455 422.888 317.942 421.556C316.429 420.224 314.377 419.475 312.237 419.475C310.097 419.475 308.044 420.224 306.531 421.556C305.018 422.888 304.168 424.694 304.168 426.578C304.168 428.445 305.011 430.236 306.511 431.557C308.011 432.877 310.045 433.619 312.167 433.619" fill="#F9FBFC"/>
</svg>
